<?xml version="1.0" encoding="UTF-8" standalone="no"?>
<!DOCTYPE svg PUBLIC "-//W3C//DTD SVG 1.1//EN"
 "http://www.w3.org/Graphics/SVG/1.1/DTD/svg11.dtd">
<!-- Generated by graphviz version 12.2.1 (20241206.2353)
 -->
<!-- Pages: 1 -->
<svg width="606pt" height="467pt"
 viewBox="0.00 0.00 605.98 467.13" xmlns="http://www.w3.org/2000/svg" xmlns:xlink="http://www.w3.org/1999/xlink">
<g id="graph0" class="graph" transform="scale(1 1) rotate(0) translate(4 463.13)">
<polygon fill="white" stroke="none" points="-4,4 -4,-463.13 601.98,-463.13 601.98,4 -4,4"/>
<g id="clust1" class="cluster">
<title>cluster10866 x 3</title>
<path fill="none" stroke="black" d="M20,-341.23C20,-341.23 90,-341.23 90,-341.23 96,-341.23 102,-347.23 102,-353.23 102,-353.23 102,-427.23 102,-427.23 102,-433.23 96,-439.23 90,-439.23 90,-439.23 20,-439.23 20,-439.23 14,-439.23 8,-433.23 8,-427.23 8,-427.23 8,-353.23 8,-353.23 8,-347.23 14,-341.23 20,-341.23"/>
<text text-anchor="middle" x="66.62" y="-348.43" font-family="Times,serif" font-size="14.00">10866 x 3</text>
</g>
<g id="clust2" class="cluster">
<title>cluster10866</title>
<path fill="none" stroke="black" d="M124,-8C124,-8 298,-8 298,-8 304,-8 310,-14 310,-20 310,-20 310,-309.32 310,-309.32 310,-315.32 304,-321.32 298,-321.32 298,-321.32 124,-321.32 124,-321.32 118,-321.32 112,-315.32 112,-309.32 112,-309.32 112,-20 112,-20 112,-14 118,-8 124,-8"/>
<text text-anchor="middle" x="285.12" y="-15.2" font-family="Times,serif" font-size="14.00">10866</text>
</g>
<g id="clust3" class="cluster">
<title>clustersplines (3)</title>
<path fill="none" stroke="black" d="M221,-329.32C221,-329.32 305,-329.32 305,-329.32 311,-329.32 317,-335.32 317,-341.32 317,-341.32 317,-439.13 317,-439.13 317,-445.13 311,-451.13 305,-451.13 305,-451.13 221,-451.13 221,-451.13 215,-451.13 209,-445.13 209,-439.13 209,-439.13 209,-341.32 209,-341.32 209,-335.32 215,-329.32 221,-329.32"/>
<text text-anchor="middle" x="280.5" y="-336.52" font-family="Times,serif" font-size="14.00">splines (3)</text>
</g>
<g id="clust4" class="cluster">
<title>clusterplayer_id (137)</title>
<path fill="none" stroke="black" d="M344,-329.32C344,-329.32 460,-329.32 460,-329.32 466,-329.32 472,-335.32 472,-341.32 472,-341.32 472,-439.13 472,-439.13 472,-445.13 466,-451.13 460,-451.13 460,-451.13 344,-451.13 344,-451.13 338,-451.13 332,-445.13 332,-439.13 332,-439.13 332,-341.32 332,-341.32 332,-335.32 338,-329.32 344,-329.32"/>
<text text-anchor="middle" x="422" y="-336.52" font-family="Times,serif" font-size="14.00">player_id (137)</text>
</g>
<g id="clust5" class="cluster">
<title>cluster137</title>
<path fill="none" stroke="black" d="M362,-223.32C362,-223.32 444,-223.32 444,-223.32 450,-223.32 456,-229.32 456,-235.32 456,-235.32 456,-309.32 456,-309.32 456,-315.32 450,-321.32 444,-321.32 444,-321.32 362,-321.32 362,-321.32 356,-321.32 350,-315.32 350,-309.32 350,-309.32 350,-235.32 350,-235.32 350,-229.32 356,-223.32 362,-223.32"/>
<text text-anchor="middle" x="437.88" y="-230.52" font-family="Times,serif" font-size="14.00">137</text>
</g>
<!-- spline_data -->
<g id="node1" class="node">
<title>spline_data</title>
<path fill="lightgrey" stroke="black" d="M81.75,-431.23C81.75,-431.23 28.25,-431.23 28.25,-431.23 22.25,-431.23 16.25,-425.23 16.25,-419.23 16.25,-419.23 16.25,-385.73 16.25,-385.73 16.25,-379.73 22.25,-373.73 28.25,-373.73 28.25,-373.73 81.75,-373.73 81.75,-373.73 87.75,-373.73 93.75,-379.73 93.75,-385.73 93.75,-385.73 93.75,-419.23 93.75,-419.23 93.75,-425.23 87.75,-431.23 81.75,-431.23"/>
<text text-anchor="middle" x="55" y="-413.93" font-family="Times,serif" font-size="14.00">spline_data</text>
<text text-anchor="middle" x="55" y="-397.43" font-family="Times,serif" font-size="14.00">~</text>
<text text-anchor="middle" x="55" y="-380.93" font-family="Times,serif" font-size="14.00">Data</text>
</g>
<!-- p -->
<g id="node3" class="node">
<title>p</title>
<polygon fill="none" stroke="black" points="211.12,-215.32 120.88,-215.32 120.88,-157.82 211.12,-157.82 211.12,-215.32"/>
<text text-anchor="middle" x="166" y="-198.02" font-family="Times,serif" font-size="14.00">p</text>
<text text-anchor="middle" x="166" y="-181.52" font-family="Times,serif" font-size="14.00">~</text>
<text text-anchor="middle" x="166" y="-165.02" font-family="Times,serif" font-size="14.00">Deterministic</text>
</g>
<!-- spline_data&#45;&gt;p -->
<g id="edge3" class="edge">
<title>spline_data&#45;&gt;p</title>
<path fill="none" stroke="black" d="M54.22,-373.37C54.61,-335.4 60.58,-267.43 95,-223.32 99.4,-217.68 104.93,-212.85 110.95,-208.75"/>
<polygon fill="black" stroke="black" points="112.66,-211.81 119.43,-203.66 109.06,-205.81 112.66,-211.81"/>
</g>
<!-- p_baseline -->
<g id="node5" class="node">
<title>p_baseline</title>
<polygon fill="none" stroke="black" points="302.12,-313.32 211.88,-313.32 211.88,-255.82 302.12,-255.82 302.12,-313.32"/>
<text text-anchor="middle" x="257" y="-296.02" font-family="Times,serif" font-size="14.00">p_baseline</text>
<text text-anchor="middle" x="257" y="-279.52" font-family="Times,serif" font-size="14.00">~</text>
<text text-anchor="middle" x="257" y="-263.02" font-family="Times,serif" font-size="14.00">Deterministic</text>
</g>
<!-- spline_data&#45;&gt;p_baseline -->
<g id="edge10" class="edge">
<title>spline_data&#45;&gt;p_baseline</title>
<path fill="none" stroke="black" d="M66.94,-373.44C75.21,-357.67 87.84,-339.22 105,-329.32 123.93,-318.4 182.35,-328.46 203,-321.32 205.2,-320.56 207.4,-319.68 209.58,-318.72"/>
<polygon fill="black" stroke="black" points="210.9,-321.98 218.26,-314.36 207.75,-315.73 210.9,-321.98"/>
</g>
<!-- y_rep -->
<g id="node2" class="node">
<title>y_rep</title>
<ellipse fill="lightgrey" stroke="black" cx="167" cy="-81.16" rx="47.38" ry="40.66"/>
<text text-anchor="middle" x="167" y="-92.61" font-family="Times,serif" font-size="14.00">y_rep</text>
<text text-anchor="middle" x="167" y="-76.11" font-family="Times,serif" font-size="14.00">~</text>
<text text-anchor="middle" x="167" y="-59.61" font-family="Times,serif" font-size="14.00">Bernoulli</text>
</g>
<!-- p&#45;&gt;y_rep -->
<g id="edge8" class="edge">
<title>p&#45;&gt;y_rep</title>
<path fill="none" stroke="black" d="M166.27,-157.58C166.34,-150.1 166.42,-141.77 166.5,-133.45"/>
<polygon fill="black" stroke="black" points="170,-133.75 166.6,-123.71 163,-133.68 170,-133.75"/>
</g>
<!-- player_idx -->
<g id="node4" class="node">
<title>player_idx</title>
<path fill="lightgrey" stroke="black" d="M181.88,-313.32C181.88,-313.32 132.12,-313.32 132.12,-313.32 126.12,-313.32 120.12,-307.32 120.12,-301.32 120.12,-301.32 120.12,-267.82 120.12,-267.82 120.12,-261.82 126.12,-255.82 132.12,-255.82 132.12,-255.82 181.88,-255.82 181.88,-255.82 187.88,-255.82 193.88,-261.82 193.88,-267.82 193.88,-267.82 193.88,-301.32 193.88,-301.32 193.88,-307.32 187.88,-313.32 181.88,-313.32"/>
<text text-anchor="middle" x="157" y="-296.02" font-family="Times,serif" font-size="14.00">player_idx</text>
<text text-anchor="middle" x="157" y="-279.52" font-family="Times,serif" font-size="14.00">~</text>
<text text-anchor="middle" x="157" y="-263.02" font-family="Times,serif" font-size="14.00">Data</text>
</g>
<!-- player_idx&#45;&gt;p -->
<g id="edge4" class="edge">
<title>player_idx&#45;&gt;p</title>
<path fill="none" stroke="black" d="M159.63,-255.54C160.46,-246.65 161.4,-236.64 162.29,-227.1"/>
<polygon fill="black" stroke="black" points="165.76,-227.58 163.21,-217.3 158.79,-226.93 165.76,-227.58"/>
</g>
<!-- sigma -->
<g id="node6" class="node">
<title>sigma</title>
<ellipse fill="none" stroke="black" cx="540" cy="-402.48" rx="57.98" ry="40.66"/>
<text text-anchor="middle" x="540" y="-413.93" font-family="Times,serif" font-size="14.00">sigma</text>
<text text-anchor="middle" x="540" y="-397.43" font-family="Times,serif" font-size="14.00">~</text>
<text text-anchor="middle" x="540" y="-380.93" font-family="Times,serif" font-size="14.00">HalfNormal</text>
</g>
<!-- 1|player_id -->
<g id="node10" class="node">
<title>1|player_id</title>
<polygon fill="none" stroke="black" points="448.12,-313.32 357.88,-313.32 357.88,-255.82 448.12,-255.82 448.12,-313.32"/>
<text text-anchor="middle" x="403" y="-296.02" font-family="Times,serif" font-size="14.00">1|player_id</text>
<text text-anchor="middle" x="403" y="-279.52" font-family="Times,serif" font-size="14.00">~</text>
<text text-anchor="middle" x="403" y="-263.02" font-family="Times,serif" font-size="14.00">Deterministic</text>
</g>
<!-- sigma&#45;&gt;1|player_id -->
<g id="edge1" class="edge">
<title>sigma&#45;&gt;1|player_id</title>
<path fill="none" stroke="black" d="M512.65,-366.39C501.97,-353.89 489.14,-340.22 476,-329.32 470.35,-324.63 464.14,-320.11 457.8,-315.87"/>
<polygon fill="black" stroke="black" points="460.05,-313.16 449.74,-310.7 456.26,-319.05 460.05,-313.16"/>
</g>
<!-- alpha -->
<g id="node7" class="node">
<title>alpha</title>
<ellipse fill="none" stroke="black" cx="155" cy="-402.48" rx="41.01" ry="40.66"/>
<text text-anchor="middle" x="155" y="-413.93" font-family="Times,serif" font-size="14.00">alpha</text>
<text text-anchor="middle" x="155" y="-397.43" font-family="Times,serif" font-size="14.00">~</text>
<text text-anchor="middle" x="155" y="-380.93" font-family="Times,serif" font-size="14.00">Normal</text>
</g>
<!-- alpha&#45;&gt;p -->
<g id="edge7" class="edge">
<title>alpha&#45;&gt;p</title>
<path fill="none" stroke="black" d="M131.92,-368.34C123.6,-354.47 115.22,-337.77 111,-321.32 100.18,-279.13 90.23,-261.6 111,-223.32 111.69,-222.05 112.44,-220.82 113.25,-219.63"/>
<polygon fill="black" stroke="black" points="115.64,-222.23 119.5,-212.36 110.33,-217.67 115.64,-222.23"/>
</g>
<!-- alpha&#45;&gt;p_baseline -->
<g id="edge11" class="edge">
<title>alpha&#45;&gt;p_baseline</title>
<path fill="none" stroke="black" d="M175.9,-367.4C184.27,-354.87 194.43,-340.92 205,-329.32 207.42,-326.66 210.01,-324.01 212.68,-321.41"/>
<polygon fill="black" stroke="black" points="214.83,-324.19 219.78,-314.82 210.07,-319.06 214.83,-324.19"/>
</g>
<!-- w -->
<g id="node8" class="node">
<title>w</title>
<ellipse fill="none" stroke="black" cx="263" cy="-402.48" rx="46.32" ry="40.66"/>
<text text-anchor="middle" x="263" y="-413.93" font-family="Times,serif" font-size="14.00">w</text>
<text text-anchor="middle" x="263" y="-397.43" font-family="Times,serif" font-size="14.00">~</text>
<text text-anchor="middle" x="263" y="-380.93" font-family="Times,serif" font-size="14.00">StudentT</text>
</g>
<!-- w&#45;&gt;p -->
<g id="edge6" class="edge">
<title>w&#45;&gt;p</title>
<path fill="none" stroke="black" d="M287.88,-367.81C313.14,-329.17 344.19,-265.68 311,-223.32 299.96,-209.23 258.66,-199.94 222.94,-194.37"/>
<polygon fill="black" stroke="black" points="223.49,-190.91 213.09,-192.91 222.47,-197.84 223.49,-190.91"/>
</g>
<!-- w&#45;&gt;p_baseline -->
<g id="edge9" class="edge">
<title>w&#45;&gt;p_baseline</title>
<path fill="none" stroke="black" d="M260.94,-361.59C260.32,-349.7 259.65,-336.69 259.03,-324.84"/>
<polygon fill="black" stroke="black" points="262.54,-324.79 258.52,-314.98 255.54,-325.15 262.54,-324.79"/>
</g>
<!-- player_offset -->
<g id="node9" class="node">
<title>player_offset</title>
<ellipse fill="none" stroke="black" cx="402" cy="-402.48" rx="61.7" ry="40.66"/>
<text text-anchor="middle" x="402" y="-413.93" font-family="Times,serif" font-size="14.00">player_offset</text>
<text text-anchor="middle" x="402" y="-397.43" font-family="Times,serif" font-size="14.00">~</text>
<text text-anchor="middle" x="402" y="-380.93" font-family="Times,serif" font-size="14.00">Normal</text>
</g>
<!-- player_offset&#45;&gt;1|player_id -->
<g id="edge2" class="edge">
<title>player_offset&#45;&gt;1|player_id</title>
<path fill="none" stroke="black" d="M402.34,-361.59C402.45,-349.7 402.56,-336.69 402.66,-324.84"/>
<polygon fill="black" stroke="black" points="406.16,-325.01 402.75,-314.98 399.16,-324.95 406.16,-325.01"/>
</g>
<!-- 1|player_id&#45;&gt;p -->
<g id="edge5" class="edge">
<title>1|player_id&#45;&gt;p</title>
<path fill="none" stroke="black" d="M381.95,-255.56C371.74,-243.87 358.54,-231.21 344,-223.32 306.62,-203.04 259.21,-194.21 222.72,-190.39"/>
<polygon fill="black" stroke="black" points="223.07,-186.91 212.79,-189.46 222.42,-193.87 223.07,-186.91"/>
</g>
</g>
</svg>
